<svg width="66" height="26" viewBox="0 0 66 26" fill="none" xmlns="http://www.w3.org/2000/svg">
<path d="M10.593 4.14V5.7636H6.3756V18H4.6332V5.7636H0.4158V4.14H10.593ZM23.7493 16.1982C22.3765 17.5578 20.6407 18.2376 18.5419 18.2376C16.4563 18.2376 14.7271 17.5578 13.3543 16.1982C11.9815 14.8386 11.2951 13.1358 11.2951 11.0898C11.2951 9.0306 11.9815 7.3212 13.3543 5.9616C14.7271 4.5888 16.4563 3.9024 18.5419 3.9024C20.6407 3.9024 22.3765 4.5822 23.7493 5.9418C25.1221 7.3014 25.8085 9.0108 25.8085 11.07C25.8085 13.1292 25.1221 14.8386 23.7493 16.1982ZM14.6215 14.9706C15.6643 16.0134 16.9711 16.5348 18.5419 16.5348C20.1259 16.5348 21.4327 16.02 22.4623 14.9904C23.5051 13.9476 24.0265 12.6408 24.0265 11.07C24.0265 9.4992 23.5051 8.199 22.4623 7.1694C21.4327 6.1266 20.1259 5.6052 18.5419 5.6052C16.9711 5.6052 15.6643 6.1266 14.6215 7.1694C13.5919 8.2122 13.0771 9.5124 13.0771 11.07C13.0771 12.6276 13.5919 13.9278 14.6215 14.9706ZM35.7699 4.14H37.5123V18H35.7699V12.4956C34.6611 12.9312 33.5985 13.149 32.5821 13.149C31.1169 13.149 29.9355 12.7134 29.0379 11.8422C28.1535 10.9578 27.7113 9.7434 27.7113 8.199V4.14H29.4537V8.0802C29.4537 9.1626 29.7375 9.9942 30.3051 10.575C30.8727 11.1558 31.6845 11.4462 32.7405 11.4462C33.6117 11.4462 34.6215 11.202 35.7699 10.7136V4.14ZM49.762 18L44.8912 11.6442H43.03V18H41.3074V4.14H43.03V10.0206H44.8714L49.3066 4.14H51.5242L46.4554 10.8126L51.9796 18H49.762ZM63.558 18L62.172 14.6736H55.5192L54.153 18H52.3116L57.9744 4.14H59.598L65.439 18H63.558ZM58.8258 6.5358L56.1726 13.0896H61.5186L58.8258 6.5358Z" fill="black"/>
<path d="M24.0136 16.0083C22.6894 17.3361 21.015 18 18.9905 18C16.9786 18 15.3106 17.3361 13.9864 16.0083C12.6621 14.6805 12 13.0175 12 11.0193C12 9.00829 12.6621 7.33886 13.9864 6.01105C15.3106 4.67035 16.9786 4 18.9905 4C21.015 4 22.6894 4.6639 24.0136 5.99171C25.3379 7.31952 26 8.98895 26 11C26 13.0111 25.3379 14.6805 24.0136 16.0083Z" fill="black"/>
</svg>
